<svg id="Layer_1" data-name="Layer 1" xmlns="http://www.w3.org/2000/svg" viewBox="0 0 4500 4500"><defs><style>.cls-1{fill:#008a78;}.cls-2{fill:#f7931e;}.cls-3{fill:#ff8100;}</style></defs><rect class="cls-1" width="4500" height="4500"/><polyline class="cls-2" points="1903.26 1986.46 2625.33 1986.46 2625.33 2708.53"/><polyline class="cls-2" points="2540.18 2793.68 1818.11 2793.68 1818.11 2071.62"/><polygon class="cls-2" points="4076.31 1575.4 3597.13 1575.4 3016.16 1575.4 3016.16 636.64 4076.31 636.64 4076.31 1575.4"/><polygon class="cls-2" points="3675.85 3987.04 3899.62 3987.04 3899.62 3763.28 3675.85 3987.04"/><polygon class="cls-2" points="1250.59 3271.48 1250.59 2722.35 543.82 2722.35 543.82 3793.01 1250.59 3271.48"/><polygon class="cls-2" points="1293.68 3361.2 704.7 3987.04 3359.39 3987.04 2845.26 3472.91 2956.96 3361.2 1293.68 3361.2"/><polygon class="cls-2" points="3192.85 2239.8 3398.79 2033.86 3693.68 2033.86 3899.62 2239.8 3899.62 793.1 543.82 793.1 543.82 1983.57 1250.59 1983.57 1250.59 1418.94 3192.85 1418.94 3192.85 2239.8"/><polygon class="cls-2" points="3693.68 2745.69 3398.79 2745.69 3192.85 2539.75 3192.85 3125.32 3345.02 2973.15 3899.62 3527.75 3899.62 2539.75 3693.68 2745.69"/><polygon class="cls-3" points="3652.18 2136.34 3440.28 2136.34 3290.48 2286.14 3290.48 2498.04 3440.28 2647.84 3652.18 2647.84 3801.98 2498.04 3801.98 2286.14 3652.18 2136.34"/><polygon class="cls-3" points="3013.6 1215.59 1718.04 1215.59 422.48 1215.59 422.48 996.46 3013.6 996.46 3013.6 1215.59"/><rect class="cls-3" x="3173.31" y="996.46" width="745.84" height="219.13" transform="translate(2440.21 4652.26) rotate(-90)"/></svg>